<?xml version="1.0" encoding="utf-8"?>
<!-- Generator: Adobe Illustrator 16.0.0, SVG Export Plug-In . SVG Version: 6.00 Build 0)  -->
<!DOCTYPE svg PUBLIC "-//W3C//DTD SVG 1.1//EN" "http://www.w3.org/Graphics/SVG/1.1/DTD/svg11.dtd">
<svg version="1.1" id="Layer_1" xmlns="http://www.w3.org/2000/svg" xmlns:xlink="http://www.w3.org/1999/xlink" x="0px" y="0px"
	 width="268.166px" height="268.183px" viewBox="0 0 268.166 268.183" enable-background="new 0 0 268.166 268.183"
	 xml:space="preserve">
<g>
	<g>
		<path fill="#47848F" d="M268.166,210.72c0,31.707-25.715,57.463-57.467,57.463H57.466C25.735,268.183,0,242.427,0,210.72V57.466
			C0,25.735,25.735,0,57.466,0h153.233c31.752,0,57.467,25.735,57.467,57.466V210.72z"/>
		<rect x="50.061" y="126.131" fill="#FFFFFF" width="168.053" height="15.931"/>
		<rect x="73.585" y="91.89" fill="#FFFFFF" width="121.026" height="15.914"/>
		<rect x="73.585" y="160.39" fill="#FFFFFF" width="121.026" height="15.914"/>
		<path fill="#FFFFFF" d="M218.125,48.644c-6.465,0-12.088,3.628-14.938,8.966H50.061v15.934h153.126
			c2.85,5.335,8.473,8.963,14.938,8.963c9.341,0,16.91-7.569,16.91-16.93C235.035,56.215,227.466,48.644,218.125,48.644z
			 M218.125,74.959c-1.808,0-3.479-0.536-4.903-1.415c-2.681-1.652-4.478-4.591-4.478-7.967c0-3.389,1.808-6.323,4.498-7.967
			c1.425-0.869,3.085-1.395,4.883-1.395c5.179,0,9.382,4.183,9.382,9.362S223.304,74.959,218.125,74.959z"/>
		<path fill="#FFFFFF" d="M65.01,194.65c-2.85-5.338-8.473-8.971-14.929-8.971c-9.362,0-16.951,7.568-16.951,16.91
			c0,9.361,7.589,16.949,16.951,16.949c6.451,0,12.063-3.633,14.918-8.975h153.114V194.65H65.01z M50.082,211.97
			c-5.199,0-9.382-4.184-9.382-9.381c0-5.158,4.183-9.361,9.382-9.361c1.803,0,3.473,0.535,4.903,1.422
			c2.666,1.652,4.458,4.58,4.458,7.939c0,3.391-1.808,6.328-4.484,7.975C53.534,211.441,51.875,211.97,50.082,211.97z"/>
	</g>
</g>
</svg>
