<?xml version="1.0" encoding="utf-8"?>
<!-- Generator: Adobe Illustrator 16.0.0, SVG Export Plug-In . SVG Version: 6.00 Build 0)  -->
<!DOCTYPE svg PUBLIC "-//W3C//DTD SVG 1.1//EN" "http://www.w3.org/Graphics/SVG/1.1/DTD/svg11.dtd">
<svg version="1.1" id="Layer_1" xmlns="http://www.w3.org/2000/svg" xmlns:xlink="http://www.w3.org/1999/xlink" x="0px" y="0px"
	 width="1209.764px" height="194.552px" viewBox="0 0 1209.764 194.552" enable-background="new 0 0 1209.764 194.552"
	 xml:space="preserve">
<g>
	<g>
		<path fill="#47848F" d="M194.537,152.863c0,23.005-18.654,41.688-41.687,41.688H41.688C18.669,194.552,0,175.868,0,152.863V41.688
			C0,18.669,18.669,0,41.688,0H152.85c23.033,0,41.687,18.669,41.687,41.688V152.863z"/>
		<rect x="36.315" y="91.5" fill="#FFFFFF" width="121.913" height="11.559"/>
		<rect x="53.38" y="66.66" fill="#FFFFFF" width="87.796" height="11.545"/>
		<rect x="53.38" y="116.354" fill="#FFFFFF" width="87.796" height="11.546"/>
		<path fill="#FFFFFF" d="M158.235,35.29c-4.69,0-8.769,2.632-10.837,6.502H36.315v11.561h111.083
			c2.069,3.87,6.146,6.502,10.836,6.502c6.777,0,12.266-5.491,12.266-12.283S165.012,35.29,158.235,35.29z M158.235,54.378
			c-1.311,0-2.521-0.387-3.558-1.025c-1.945-1.199-3.249-3.33-3.249-5.781c0-2.458,1.311-4.587,3.265-5.779
			c1.033-0.63,2.237-1.013,3.542-1.013c3.757,0,6.805,3.035,6.805,6.792S161.992,54.378,158.235,54.378z"/>
		<path fill="#FFFFFF" d="M47.158,141.207c-2.066-3.872-6.144-6.511-10.828-6.511c-6.792,0-12.296,5.491-12.296,12.269
			c0,6.792,5.504,12.298,12.296,12.298c4.678,0,8.752-2.639,10.821-6.511h111.077v-11.545H47.158z M36.33,153.771
			c-3.77,0-6.805-3.035-6.805-6.807c0-3.742,3.035-6.792,6.805-6.792c1.307,0,2.518,0.389,3.555,1.034
			c1.935,1.198,3.237,3.323,3.237,5.758c0,2.464-1.312,4.593-3.255,5.787C38.833,153.388,37.63,153.771,36.33,153.771z"/>
	</g>
	<g>
		<g>
			<path fill="#47848F" d="M277.471,154.149h-13.172V52.567h-35.877V40.868h84.925v11.699h-35.876V154.149z"/>
			<path fill="#47848F" d="M393.543,154.149h-63.151V40.868h63.151v11.699h-49.978v36.497h46.955v11.622h-46.955v41.687h49.978
				V154.149z"/>
			<path fill="#47848F" d="M494.041,154.149h-14.956l-30.451-49.821l-30.993,49.821h-13.949l37.659-59.198L406.25,40.868h14.567
				l28.128,44.865l28.358-44.865h14.025l-35.1,53.619L494.041,154.149z"/>
			<path fill="#47848F" d="M545.103,154.149H531.93V52.567h-35.875V40.868h84.922v11.699h-35.875V154.149z"/>
			<path fill="#47848F" d="M652.419,107.04v47.109h-13.176V40.868h31.072c13.899,0,24.163,2.66,30.799,7.981
				c6.638,5.321,9.962,13.326,9.962,24.02c0,14.98-7.596,25.105-22.782,30.374l30.763,50.907h-15.576l-27.429-47.109H652.419z
				 M652.419,95.726h18.053c9.3,0,16.118-1.847,20.457-5.54c4.339-3.694,6.51-9.233,6.51-16.622c0-7.489-2.208-12.887-6.629-16.192
				c-4.417-3.309-11.505-4.959-21.269-4.959h-17.122V95.726z"/>
			<path fill="#47848F" d="M800.493,154.149h-63.149V40.868h63.149v11.699h-49.978v36.497h46.954v11.622h-46.954v41.687h49.978
				V154.149z"/>
			<path fill="#47848F" d="M896.804,154.149l-14.103-36.028h-45.404l-13.951,36.028h-13.324l44.786-113.747h11.079l44.552,113.747
				H896.804z M878.596,106.264l-13.172-35.1c-1.705-4.442-3.461-9.893-5.27-16.349c-1.138,4.959-2.764,10.41-4.884,16.349
				l-13.324,35.1H878.596z"/>
			<path fill="#47848F" d="M1016.44,96.425c0,18.698-5.072,32.993-15.225,42.887c-10.152,9.892-24.755,14.838-43.815,14.838h-31.384
				V40.868h34.712c17.614,0,31.306,4.88,41.069,14.645C1011.56,65.274,1016.44,78.912,1016.44,96.425z M1002.494,96.888
				c0-14.771-3.709-25.905-11.119-33.394c-7.415-7.49-18.427-11.236-33.048-11.236h-19.138v90.501h16.04
				c15.703,0,27.504-3.862,35.411-11.582C998.541,123.453,1002.494,112.023,1002.494,96.888z"/>
			<path fill="#47848F" d="M1104.852,154.149H1041.7V40.868h63.152v11.699h-49.98v36.497h46.957v11.622h-46.957v41.687h49.98
				V154.149z"/>
			<path fill="#47848F" d="M1143.127,107.04v47.109h-13.172V40.868h31.068c13.898,0,24.166,2.66,30.803,7.981
				c6.64,5.321,9.956,13.326,9.956,24.02c0,14.98-7.593,25.105-22.776,30.374l30.758,50.907h-15.574l-27.43-47.109H1143.127z
				 M1143.127,95.726h18.053c9.3,0,16.118-1.847,20.457-5.54c4.339-3.694,6.51-9.233,6.51-16.622c0-7.489-2.208-12.887-6.625-16.192
				c-4.416-3.309-11.509-4.959-21.269-4.959h-17.126V95.726z"/>
		</g>
	</g>
</g>
</svg>
