<?xml version="1.0" encoding="utf-8"?>
<!-- Generator: Adobe Illustrator 16.0.0, SVG Export Plug-In . SVG Version: 6.00 Build 0)  -->
<!DOCTYPE svg PUBLIC "-//W3C//DTD SVG 1.1//EN" "http://www.w3.org/Graphics/SVG/1.1/DTD/svg11.dtd">
<svg version="1.1" id="Layer_1" xmlns="http://www.w3.org/2000/svg" xmlns:xlink="http://www.w3.org/1999/xlink" x="0px" y="0px"
	 width="506.639px" height="284.767px" viewBox="0 0 506.639 284.767" enable-background="new 0 0 506.639 284.767"
	 xml:space="preserve">
<g>
	<g>
		<path fill="#47848F" d="M349.723,151.504c0,22.798-18.488,41.315-41.317,41.315H198.233c-22.814,0-41.317-18.518-41.317-41.315
			V41.317C156.916,18.503,175.419,0,198.233,0h110.172c22.829,0,41.317,18.503,41.317,41.317V151.504z"/>
		<rect x="192.909" y="90.686" fill="#FFFFFF" width="120.827" height="11.455"/>
		<rect x="209.822" y="66.067" fill="#FFFFFF" width="87.016" height="11.442"/>
		<rect x="209.822" y="115.318" fill="#FFFFFF" width="87.016" height="11.442"/>
		<path fill="#FFFFFF" d="M313.744,34.974c-4.648,0-8.691,2.609-10.74,6.446H192.909v11.457h110.095
			c2.049,3.835,6.092,6.444,10.74,6.444c6.716,0,12.158-5.442,12.158-12.172C325.902,40.418,320.46,34.974,313.744,34.974z
			 M313.744,53.894c-1.3,0-2.501-0.385-3.525-1.017c-1.928-1.188-3.22-3.301-3.22-5.728c0-2.437,1.3-4.546,3.234-5.729
			c1.024-0.625,2.218-1.002,3.511-1.002c3.724,0,6.745,3.007,6.745,6.731C320.489,50.872,317.468,53.894,313.744,53.894z"/>
		<path fill="#FFFFFF" d="M203.657,139.95c-2.049-3.837-6.092-6.45-10.733-6.45c-6.731,0-12.188,5.442-12.188,12.158
			c0,6.73,5.457,12.186,12.188,12.186c4.638,0,8.673-2.611,10.726-6.452h110.086V139.95H203.657z M192.924,152.403
			c-3.738,0-6.746-3.008-6.746-6.745c0-3.709,3.007-6.731,6.746-6.731c1.296,0,2.497,0.385,3.525,1.022
			c1.917,1.188,3.206,3.293,3.206,5.708c0,2.438-1.3,4.549-3.224,5.733C195.406,152.021,194.213,152.403,192.924,152.403z"/>
	</g>
	<g>
		<g>
			<path fill="#47848F" d="M25.315,284.767H18.5v-52.44H0v-6.057h43.818v6.057H25.315V284.767z"/>
			<path fill="#47848F" d="M85.231,284.767H52.638V226.27h32.593v6.057H59.428v18.845h24.228v5.986H59.428v21.523h25.803V284.767z"
				/>
			<path fill="#47848F" d="M137.098,284.767h-7.704l-15.724-25.719l-15.98,25.719h-7.219l19.447-30.559L91.789,226.27h7.531
				l14.494,23.184l14.663-23.184h7.245l-18.129,27.68L137.098,284.767z"/>
			<path fill="#47848F" d="M163.474,284.767h-6.786v-52.44h-18.533v-6.057h43.851v6.057h-18.533V284.767z"/>
			<path fill="#47848F" d="M218.893,260.436v24.331h-6.815V226.27h16.039c7.187,0,12.459,1.388,15.893,4.139
				c3.437,2.748,5.156,6.872,5.156,12.4c0,7.719-3.922,12.96-11.769,15.681l15.896,26.277h-8.049l-14.148-24.331H218.893z
				 M218.893,254.608h9.309c4.81,0,8.335-0.958,10.568-2.864c2.262-1.919,3.353-4.769,3.353-8.578c0-3.866-1.146-6.657-3.408-8.362
				c-2.292-1.704-5.959-2.578-10.972-2.578h-8.85V254.608z"/>
			<path fill="#47848F" d="M295.333,284.767H262.74V226.27h32.593v6.057h-25.804v18.845h24.229v5.986h-24.229v21.523h25.804V284.767
				z"/>
			<path fill="#47848F" d="M345.052,284.767l-7.274-18.603H314.32l-7.186,18.603h-6.874l23.141-58.727h5.699l22.998,58.727H345.052z
				 M335.659,260.035l-6.815-18.113c-0.859-2.277-1.777-5.113-2.691-8.435c-0.603,2.548-1.433,5.368-2.523,8.435l-6.903,18.113
				H335.659z"/>
			<path fill="#47848F" d="M406.83,254.967c0,9.651-2.637,17.04-7.877,22.138c-5.24,5.113-12.774,7.662-22.627,7.662h-16.179V226.27
				h17.897c9.11,0,16.183,2.521,21.225,7.575C404.307,238.87,406.83,245.917,406.83,254.967z M399.64,255.211
				c0-7.635-1.946-13.391-5.758-17.257c-3.837-3.853-9.507-5.8-17.067-5.8h-9.881v46.726h8.306c8.075,0,14.178-1.99,18.272-5.971
				C397.58,268.929,399.64,263.028,399.64,255.211z"/>
			<path fill="#47848F" d="M452.451,284.767h-32.563V226.27h32.563v6.057h-25.774v18.845h24.229v5.986h-24.229v21.523h25.774
				V284.767z"/>
			<path fill="#47848F" d="M472.243,260.436v24.331h-6.815V226.27h16.036c7.189,0,12.488,1.388,15.896,4.139
				c3.438,2.748,5.155,6.872,5.155,12.4c0,7.719-3.925,12.96-11.772,15.681l15.896,26.277h-8.049l-14.145-24.331H472.243z
				 M472.243,254.608h9.309c4.811,0,8.332-0.958,10.568-2.864c2.232-1.919,3.349-4.769,3.349-8.578c0-3.866-1.146-6.657-3.408-8.362
				c-2.291-1.704-5.956-2.578-10.997-2.578h-8.82V254.608z"/>
		</g>
	</g>
</g>
</svg>
